<?xml version="1.0" encoding="utf-8"?>
<!DOCTYPE svg PUBLIC "-//W3C//DTD SVG 1.0//EN" "http://www.w3.org/TR/2001/REC-SVG-20010904/DTD/svg10.dtd">
<svg version="1.0" xmlns="http://www.w3.org/2000/svg" width="128px" height="128px" viewBox="0 0 128 128" preserveAspectRatio="xMidYMid meet">
 <g fill="#f9b0b0">
  <path d="M10.4 84.8 c-5.5 -4.3 -6.6 -7.7 -3.5 -11.8 2.6 -3.6 2.7 -4.4 0.1 -3 -1.4 0.8 -2.6 0.8 -4.1 -0.1 -2 -1 -2.1 -1.7 -1.7 -9.3 0.8 -11.7 5.7 -22.8 14.2 -32 2 -2 3.4 -2.7 5.2 -2.3 2 0.3 2.4 0 2.4 -1.8 0 -2.9 2.3 -4.9 10.1 -8.4 7.1 -3.2 15.6 -5.1 23 -5.1 3.8 0 5.1 0.5 6.3 2.2 l1.6 2.2 1.6 -2.3 c1.7 -2.3 2 -2.4 13.3 -1.8 10.9 0.5 18 2 23.3 4.8 2.9 1.5 3.8 2.8 3.8 5.8 0 2 0.3 2.2 1.2 1.3 1.9 -1.9 3.7 -1.4 6.3 1.4 1.6 1.8 2.5 3.9 2.5 6 0 2.2 0.5 3.4 1.4 3.4 3.4 0 2.9 18.2 -0.5 20.3 -1.1 0.7 -1.9 2.1 -1.9 3.3 0 2.6 -3 5.4 -5.8 5.4 -1.2 0 -2.2 0.5 -2.2 1 0 0.6 -1.1 1 -2.4 1 -1.4 0 -2.8 0.5 -3.1 1 -0.3 0.6 -1.9 1 -3.5 1 -2.2 0 -3.2 0.7 -4.4 3.2 -0.9 1.7 -1.6 4.1 -1.6 5.3 0 2.7 -3.5 6.7 -8.1 9.1 -3 1.6 -6.3 1.9 -25.7 2.2 -15.3 0.3 -22.7 0 -23.6 -0.7 -1 -0.8 -2.2 -0.8 -4 -0.1 -1.5 0.5 -6 1 -10 1 -6 0 -7.8 -0.4 -10.2 -2.2z"/>
 </g>
 <g fill="#f79595">
  <path d="M17.8 92.4 c-0.5 -0.4 -0.8 -1.5 -0.8 -2.4 0 -1 -1.3 -2.3 -3 -3 -4.9 -2 -3.5 -3 4.3 -3 5.5 0 8.2 -0.5 11.2 -2.1 11.4 -6.1 11.3 -6.1 25 -6.6 14.1 -0.6 18.5 -0.1 18.5 2.1 0 1.1 -3.1 1.5 -15.7 1.8 -10.8 0.2 -16.5 0.7 -18.2 1.6 -4.7 2.8 -0.7 3.4 19 3 18.9 -0.3 19.5 -0.4 23.9 -3 4 -2.3 8.1 -7.2 6.9 -8.1 -0.2 -0.2 -2 -1.3 -4 -2.5 -3.4 -2.1 -4.9 -2.2 -22.6 -2.2 -23.5 0 -26.9 -0.8 -35 -8.5 -4.5 -4.1 -5.5 -5.6 -4.6 -6.6 0.9 -0.9 2.2 -0.2 6 3.1 8.5 7.6 10 8 33.4 8 19.3 0 20.7 -0.1 22.4 -2 1 -1.1 2.4 -2 3.2 -2 1.6 0 1.7 3.2 0.1 4.8 -0.9 1 -0.8 1.6 0.5 2.9 1.5 1.5 1.7 1.5 2.6 -1 0.8 -2.1 1.7 -2.7 4 -2.7 3.9 0 4.5 -1.3 1.8 -3.7 -4.9 -4.5 -6.4 -4.8 -29.5 -5.3 -13.8 -0.3 -22.2 -0.9 -22.2 -1.5 0 -0.5 2.1 -1.2 4.7 -1.5 5.3 -0.6 5.3 -0.5 3.8 -8.7 -0.6 -3.6 -0.5 -4.3 0.8 -4.3 1.1 0 2 1.5 2.7 4.3 2.1 8.3 2.4 8.7 8 8.7 5.6 0 5.9 -0.4 8 -8.7 0.7 -2.8 1.6 -4.3 2.7 -4.3 1.3 0 1.4 0.7 0.8 4.3 -1.4 7.7 -1.3 8.2 1.9 8.5 5.2 0.6 7.2 -0.5 8.5 -4.7 0.6 -2.2 1.6 -4.3 2.2 -4.7 1.7 -1 2.8 1.7 1.8 4.3 -1.5 4 -1.1 5.2 2.4 6.6 1.8 0.8 4.7 3 6.4 5.1 1.8 2 3.5 3.6 3.8 3.6 1.4 0 0.1 -2.3 -3.5 -6.5 -5.1 -5.9 -5.4 -9.8 -1 -14 2.2 -2.2 3.3 -2.6 4.1 -1.8 0.9 0.9 0.5 2 -1.5 4.3 -3.1 3.7 -3.1 4 -0.8 6.6 1 1 3 3.6 4.6 5.7 2.7 3.6 3 3.7 4.8 2.1 1 -1 1.6 -2.5 1.3 -3.4 -0.4 -1.1 0.3 -2.3 2 -3.4 3.6 -2.4 2.2 -3.7 -3 -2.9 -3.6 0.5 -4.5 0.3 -4.5 -1 0 -0.8 0.7 -1.8 1.5 -2.1 1.2 -0.4 1.4 -1.4 0.9 -4.2 -0.5 -3 -0.2 -4 2.2 -6.5 2.5 -2.6 2.6 -3.1 1.4 -5.4 -0.7 -1.3 -2.1 -3.3 -3.1 -4.4 -1 -1 -1.5 -2.2 -1.2 -2.5 4 -4 18.1 14.1 19.8 25.4 1.6 11.1 -8.6 22 -20.8 22 -4.4 0 -4.4 0 -5.1 4.2 -0.9 5.7 -3.8 10 -8.4 12.6 -3.4 1.9 -5.5 2.2 -14.6 2.2 -9 0 -10.7 0.3 -11.5 1.8 -0.8 1.5 -3.3 1.7 -24.8 2 -13.1 0.2 -24.1 0 -24.5 -0.4z m98.4 -49.6 c0.7 -2.1 -0.4 -5.8 -1.8 -5.8 -1.9 0 -2.7 1.8 -2 4.6 0.7 2.5 3.1 3.3 3.8 1.2z"/>
  <path d="M12 79 c0 -4.6 15.8 -11.1 19.5 -8 2.1 1.8 0.9 3 -3.1 3 -4.3 0 -9.3 2.1 -11.8 4.9 -2.4 2.7 -4.6 2.7 -4.6 0.1z"/>
  <path d="M14.1 62.3 c-4.2 -5.1 -4.8 -9 -2.2 -14.8 1.2 -2.8 2.6 -4.5 3.3 -4.2 1.5 0.5 1.4 2 -0.3 6.3 -1.5 3.8 -0.7 7.3 2.6 11.2 1.4 1.7 2.5 3.5 2.5 4.1 0 2.3 -3 1 -5.9 -2.6z"/>
  <path d="M32.5 47.9 c-2.7 -3 -3.4 -4.4 -2.6 -5.2 0.8 -0.8 2.3 0.1 5.6 3.3 2.5 2.4 4.5 4.8 4.5 5.2 0 2.2 -4.2 0.3 -7.5 -3.3z"/>
  <path d="M61.4 40.7 c-0.3 -0.8 -0.4 -3.9 -0.2 -6.8 0.2 -4 0.7 -5.4 1.8 -5.4 2 0 2.2 12.6 0.3 13.2 -0.7 0.3 -1.5 -0.2 -1.9 -1z"/>
  <path d="M38 31.1 c-2.2 -4.4 -4 -8.5 -4 -9.1 0 -2.3 3.1 -0.8 4.6 2.3 2.3 4.3 3.3 4.8 6.6 3.1 2.3 -1.2 2.8 -2.1 2.8 -5.4 0 -4.5 1.4 -6 2.9 -3.1 2.5 4.5 0.2 10.3 -4.6 12.2 -2 0.7 -2.4 1.5 -2.1 4.1 0.6 5.8 -2 4.1 -6.2 -4.1z"/>
  <path d="M24.5 30.9 c-2.8 -2.9 -4.2 -4.9 -3.3 -4.6 0.9 0.3 1.8 0.1 2 -0.4 0.2 -0.5 2.3 1 4.7 3.5 2.4 2.4 4 4.9 3.7 5.5 -1.1 1.8 -1.9 1.3 -7.1 -4z"/>
  <path d="M83.5 34.8 c-0.3 -0.8 -0.5 -2.1 -0.3 -2.8 0.2 -0.8 -1.4 -2.2 -3.4 -3.2 -4 -1.9 -5.2 -4.4 -4.6 -9.4 0.4 -3.7 3.3 -4 3.4 -0.4 0.2 4.6 0.4 4.9 3.4 6.5 3 1.6 3.1 1.5 4.8 -1.5 3.2 -5.8 4 -6.6 5.2 -5.3 1 0.9 0.5 2.8 -2 8.2 -3.6 7.8 -5.6 10.2 -6.5 7.9z"/>
  <path d="M96.4 30.9 c-0.7 -1.2 6.4 -8.9 8.3 -8.9 2.5 0 1.3 2.8 -2.7 6.4 -4.4 4 -4.6 4.1 -5.6 2.5z"/>
  <path d="M61.7 23.4 c-0.9 -1 -0.9 -9.4 0.1 -9.4 2.2 0.1 3.3 2 3 5.5 -0.3 3.7 -1.6 5.3 -3.1 3.9z"/>
  <path d="M101.5 17 c-0.3 -0.5 -1.9 -1 -3.6 -1 -1.6 0 -2.9 -0.4 -2.9 -1 0 -0.5 0.8 -1 1.8 -1 2.3 0.1 9.2 3.9 7 4 -0.9 0 -2 -0.4 -2.3 -1z"/>
 </g>
 <g fill="#f37c7c">
  <path d="M47.8 115.9 c-2.2 -1.2 -2.2 -3.7 -0.4 -10.6 1.4 -5.1 1.3 -5.2 -0.5 -4.2 -1.7 0.9 -1.9 0.6 -1.9 -2.6 0 -2.2 0.6 -3.8 1.5 -4.1 0.8 -0.4 1.5 -1.4 1.5 -2.4 0 -1.2 1.1 -1.9 3.8 -2.4 6.3 -1 15.2 -0.7 15.2 0.5 0 1.5 -11.7 22.8 -13.8 25.2 -1.7 1.9 -2.9 2.1 -5.4 0.6z"/>
  <path d="M19.3 92.3 c-2.4 -0.4 -3.1 -2.7 -1.3 -3.8 0.6 -0.3 1 -0.1 1 0.4 0 2.2 4.2 1 6.7 -1.9 1.3 -1.6 3.3 -3 4.4 -3 2.3 0 2.5 1.3 0.4 3 -2.1 1.7 -1.9 3 0.5 3 1.3 0 1.8 0.5 1.4 1.5 -0.6 1.5 -7.4 1.9 -13.1 0.8z"/>
  <path d="M100.8 67.5 c-0.9 -1.9 -0.9 -2.8 0 -3.7 1.5 -1.5 2.8 -0.2 3.7 3.5 0.9 3.6 -2 3.8 -3.7 0.2z"/>
  <path d="M114 54.2 c0 -1.7 2.3 -2.9 7.8 -4.1 2.9 -0.6 5.5 -1.1 5.7 -1.1 0.3 0 0.5 1 0.5 2.3 0 1.6 -0.6 2.2 -2.2 2.3 -1.3 0 -4.4 0.4 -7 0.8 -3.1 0.5 -4.8 0.5 -4.8 -0.2z"/>
  <path d="M117.2 45.3 c0.2 -1 1 -1.8 1.8 -1.8 0.8 0 1.6 0.8 1.8 1.8 0.2 1.2 -0.3 1.7 -1.8 1.7 -1.5 0 -2 -0.5 -1.8 -1.7z"/>
 </g>
 <g fill="#e94444">
  <path d="M27.5 102.1 c-4.3 -1.9 -8.9 -6.6 -10 -10.2 -0.4 -1.1 -0.5 -2.1 -0.3 -2.2 0.1 -0.1 8.3 -0.1 18.1 0.1 14.7 0.2 17.7 0.5 17.7 1.7 0 0.8 -0.4 1.5 -1 1.5 -0.5 0 -0.7 0.6 -0.4 1.4 0.3 0.8 -0.3 1.9 -1.5 2.6 -1.2 0.6 -2.1 1.7 -2.1 2.4 0 2.1 -6.3 4.6 -11.7 4.6 -2.6 0 -6.6 -0.9 -8.8 -1.9z"/>
 </g>
 <g fill="#d83131">
  <path d="M29.5 97 c-1.1 -1.8 0.7 -3.2 3.6 -2.6 3.4 0.6 8.5 -1 9.3 -3 0.3 -0.8 1.4 -1.4 2.5 -1.4 2.6 0 1.7 3.4 -1.7 6 -2.7 2.2 -12.5 2.9 -13.7 1z"/>
 </g>
</svg>